<svg width="24" height="24" viewBox="0 0 24 24" fill="none" xmlns="http://www.w3.org/2000/svg">
<g id="x16-Info">
<path id="Subtract" fill-rule="evenodd" clip-rule="evenodd" d="M12 21C16.9706 21 21 16.9706 21 12C21 7.02944 16.9706 3 12 3C7.02944 3 3 7.02944 3 12C3 16.9706 7.02944 21 12 21ZM13.0078 8.87818C13.0078 9.15432 12.784 9.37818 12.5078 9.37818H11.4924C11.2163 9.37818 10.9924 9.15432 10.9924 8.87818V8.18726C10.9924 7.91111 11.2163 7.68726 11.4924 7.68726L12.5078 7.68725C12.784 7.68725 13.0078 7.91111 13.0078 8.18725V8.87818ZM12.9598 15.8128C12.9598 16.089 12.7359 16.3128 12.4598 16.3128H11.5288C11.2527 16.3128 11.0288 16.089 11.0288 15.8128L11.0288 11.4367C11.0288 11.1606 11.2527 10.9367 11.5288 10.9367H12.4598C12.7359 10.9367 12.9598 11.1606 12.9598 11.4367L12.9598 15.8128Z" fill="#0D0C0C"/>
</g>
</svg>
