<svg width="32" height="33" viewBox="0 0 32 33" fill="none" xmlns="http://www.w3.org/2000/svg">
<g id="Component 21">
<path id="Union" fill-rule="evenodd" clip-rule="evenodd" d="M3.85379 13.9792C3.56613 13.5077 2.95075 13.3587 2.47929 13.6464C2.00784 13.934 1.85884 14.5494 2.1465 15.0209C2.26376 15.2131 2.69465 15.7472 3.33234 16.4055C3.99631 17.091 4.93997 17.9689 6.12612 18.8436C6.36456 19.0195 6.61342 19.1957 6.87236 19.3704L4.70714 21.5357C4.31662 21.9262 4.31662 22.5593 4.70714 22.9499C5.09767 23.3404 5.73083 23.3404 6.12136 22.9499L8.63401 20.4372C10.4395 21.409 12.5856 22.1999 15.0001 22.4359V26.0001C15.0001 26.5524 15.4478 27.0001 16.0001 27.0001C16.5524 27.0001 17.0001 26.5524 17.0001 26.0001V22.4465C18.6183 22.2913 21.2423 21.758 23.9143 20.3285L26.5357 22.9498C26.9262 23.3404 27.5593 23.3404 27.9499 22.9498C28.3404 22.5593 28.3404 21.9262 27.9499 21.5356L25.6682 19.2539C27.163 18.2107 28.6063 16.8455 29.8253 15.0649C30.1373 14.6092 30.0208 13.9869 29.5651 13.6749C29.1094 13.3629 28.487 13.4794 28.175 13.9351C24.3341 19.5452 17.8792 20.4944 16.0166 20.5C12.4786 20.3761 9.48234 18.8338 7.3132 17.234C6.23119 16.436 5.37012 15.6347 4.76888 15.014C4.21213 14.4393 3.91729 14.0605 3.86291 13.9906C3.856 13.9817 3.85298 13.9778 3.85379 13.9792Z" fill="#B3B3BC"/>
</g>
</svg>
